<mxfile host="app.diagrams.net" modified="2023-09-28T07:09:51.812Z" agent="Mozilla/5.0 (Windows NT 10.0; Win64; x64) AppleWebKit/537.36 (KHTML, like Gecko) Chrome/117.0.0.0 Safari/537.36" version="21.8.2" etag="dMcxTr43OcGFgzUkoe33" type="github">
  <diagram name="Page-1" id="AFaIvilYlb3_nd2vxIZQ">
    <mxGraphModel>
      <root>
        <mxCell id="0" />
        <mxCell id="1" parent="0" />
      </root>
    </mxGraphModel>
  </diagram>
</mxfile>
